<svg id="Layer_1" data-name="Layer 1" xmlns="http://www.w3.org/2000/svg" viewBox="0 0 930.64 276.43"><path d="M373.85,574.25l37.54-5.55h7l37.85,5.55v17.38H373.85ZM481.53,345h30.34L596,591.63H547L478.28,381.68l11.23-9.51-73,219.46h-19.7ZM440,496.57h99.9L547,515.89H434Zm67.46,78.08,44.17-5.55h16.23l46.7,5.55v17H507.46Z" transform="translate(-373.85 -320.41)" style="fill:#ffc208"/><path d="M705.43,572.37c7.46,0,14.18-3.06,22.58-9.28l8.78,9.45c-9.52,15.37-25.78,24.3-48.62,24.3-29.61,0-47.42-14.13-47.42-46.69,0-10.92.37-19.78.37-34.21V436.85H613.71v-19L658.5,412,640.44,425.6l17.35-62.25h29.74l-1.87,65.7v117C685.66,564.36,693.66,572.37,705.43,572.37Zm25-157.89v22.37H663.53V414.48Z" transform="translate(-373.85 -320.41)" style="fill:#ffc208"/><path d="M771.48,355.07l-26.77-3.7V337.06l66.09-16.65,5.59,3.37-1.48,52.13v75.72l1.11,4.81v57.49c0,22.94.37,61.05,1.11,77.7H770.37c.74-16.65,1.11-54.76,1.11-77.7ZM838.17,576.5v15.13H746.83V576.5l37.44-7.4h18Zm90.72-101.23v38.66c0,23.68.37,61.05,1.11,77.7H883.24c.74-16.65,1.11-54,1.11-77.7v-35c0-29.11-6.84-38.72-25.38-38.72-16.05,0-31.63,9.1-49.73,27.7H798.62V446.22H820.2l-15.42,8.56c21.73-30.51,47.05-45.51,73.45-45.51C910.46,409.27,928.89,429.55,928.89,475.27ZM915.23,569.1l36.59,7.4v15.13H860.34V576.5l37-7.4Z" transform="translate(-373.85 -320.41)" style="fill:#ffc208"/><path d="M1137.67,483.74a77.84,77.84,0,0,1-2.31,20.31H994.62V486.47h78.55c17.76,0,22.1-7.56,22.1-21,0-22.72-14.64-38.29-32.92-38.29-19.47,0-40.06,18.35-40.06,71.53,0,46,23,68.75,55.25,68.75,21.78,0,36-9.5,48.27-23l10.68,9.38c-14.27,27.63-39.44,43.05-74.2,43.05-51.75,0-87.07-34.81-87.07-92.82,0-59.19,43.1-94.75,89.93-94.75C1108.69,409.27,1137.67,439,1137.67,483.74Z" transform="translate(-373.85 -320.41)" style="fill:#ffc208"/><path d="M1167.18,581.29l-.26-42.91h24.77l9.18,46.65-19.49-7.83V563.26c14.58,9.85,28.1,15,45.92,15,24.82,0,37.32-9.16,37.32-25.09,0-13.74-8.92-21.61-32.78-29.44l-18.51-6c-27.82-9.17-44.77-25.91-44.77-52.43,0-30.44,25-56,70.57-56,20.93,0,37.55,5.41,55.09,15l-2,39H1268l-9-41.58,17,7.41v11.66c-12.52-8.84-22.79-13-37.74-13-19.68,0-31.11,8.63-31.11,23.08,0,13.39,7.35,20.09,32.64,28.52l14.64,4.62c36,12.06,50.1,30.4,50.1,55.65,0,33.35-27.85,57.15-77.65,57.15C1204.34,596.84,1186,591.63,1167.18,581.29Z" transform="translate(-373.85 -320.41)" style="fill:#ffc208"/></svg>