<svg width="254" height="75" viewBox="0 0 254 75" fill="none" xmlns="http://www.w3.org/2000/svg">
<path d="M36.034 15.3601C36.034 18.5308 35.214 21.3188 33.574 23.7241C31.934 26.0748 29.556 27.5508 26.44 28.1521C30.704 28.7534 33.7926 30.3661 35.706 32.9901C37.7286 35.5594 38.74 38.5661 38.74 42.0101C38.74 46.7661 37.182 50.6201 34.066 53.5721C31.0046 56.5241 26.5493 58.0001 20.7 58.0001H0.199951V0.600098H19.142C24.4993 0.600098 28.654 1.96676 31.606 4.7001C34.558 7.37877 36.034 10.9321 36.034 15.3601ZM18.65 6.1761H6.26795V25.8561H19.634C23.0233 25.8561 25.5653 24.9541 27.26 23.1501C29.0093 21.2914 29.884 18.9408 29.884 16.0981C29.884 13.2554 28.9546 10.9048 27.096 9.0461C25.2373 7.13277 22.422 6.1761 18.65 6.1761ZM32.59 41.6821C32.59 38.6208 31.5513 36.1061 29.474 34.1381C27.3966 32.1154 24.226 31.1041 19.962 31.1041H6.26795V52.4241H20.454C24.4446 52.4241 27.4513 51.3854 29.474 49.3081C31.5513 47.2308 32.59 44.6888 32.59 41.6821Z" fill="#0C344B"/>
<path d="M56.4347 0.600098V8.9641H50.6127V0.600098H56.4347ZM56.4347 19.7881V58.0001H50.6127V19.7881H56.4347Z" fill="#0C344B"/>
<path d="M66.8813 37.6641C66.8813 31.9788 68.5487 27.3868 71.8833 23.8881C75.218 20.3348 79.4547 18.5581 84.5933 18.5581C90.388 18.5581 94.5427 20.5808 97.0573 24.6261H97.3033V19.7881H102.797V55.9501C102.797 61.8541 101.294 66.3914 98.2873 69.5621C95.3353 72.7874 91.126 74.4001 85.6593 74.4001C81.3407 74.4001 77.6507 73.4161 74.5893 71.4481C71.528 69.5348 69.5873 67.0474 68.7673 63.9861L74.5893 62.6741C75.0813 64.7514 76.3387 66.4188 78.3613 67.6761C80.384 68.9881 82.8167 69.6441 85.6593 69.6441C89.2673 69.6441 92.0553 68.5508 94.0233 66.3641C96.046 64.1774 97.0573 61.0888 97.0573 57.0981V49.8821C96.128 51.9048 94.488 53.5448 92.1373 54.8021C89.8413 56.0048 87.2173 56.6061 84.2653 56.6061C79.2907 56.6061 75.136 54.8568 71.8013 51.3581C68.5213 47.8048 66.8813 43.2401 66.8813 37.6641ZM72.7033 37.6641C72.7033 41.8188 73.8513 45.1808 76.1473 47.7501C78.498 50.2648 81.45 51.5221 85.0033 51.5221C88.7207 51.5221 91.7 50.2374 93.9413 47.6681C96.2373 45.0988 97.3853 41.7641 97.3853 37.6641C97.3853 33.5094 96.2373 30.1474 93.9413 27.5781C91.7 24.9541 88.7207 23.6421 85.0033 23.6421C81.3953 23.6421 78.4433 24.9268 76.1473 27.4961C73.8513 30.0654 72.7033 33.4548 72.7033 37.6641Z" fill="#0C344B"/>
<path d="M121.678 58.7381L105.688 0.600098H112.494L125.286 48.4881H125.614L140.374 0.600098H146.524L161.284 48.4061H161.694L174.486 0.600098H180.718L164.974 58.7381H158.496L143.49 10.0301H143.162L128.156 58.7381H121.678Z" fill="#0C344B"/>
<path d="M195.61 0.600098V8.9641H189.788V0.600098H195.61ZM195.61 19.7881V58.0001H189.788V19.7881H195.61Z" fill="#0C344B"/>
<path d="M214.749 39.1401V58.0001H208.927V0.600098H214.749V36.2701L232.215 19.7881H239.267L220.407 37.1721L241.399 58.0001H233.855L214.749 39.1401Z" fill="#0C344B"/>
<path d="M253.987 0.600098V8.9641H248.165V0.600098H253.987ZM253.987 19.7881V58.0001H248.165V19.7881H253.987Z" fill="#0C344B"/>
</svg>
