<svg id="Layer_1" data-name="Layer 1" xmlns="http://www.w3.org/2000/svg" viewBox="0 0 1991.13 1991.13"><circle cx="995.56" cy="995.56" r="995.56" style="fill:#fff"/><circle cx="995.56" cy="995.56" r="915.25" style="fill:none;stroke:#ffc208;stroke-linecap:round;stroke-linejoin:round;stroke-width:20px"/><path d="M460.9,720.6" transform="translate(-84.44 -84.44)" style="fill:none;stroke:#ffdb55;stroke-linecap:round;stroke-linejoin:round;stroke-width:17.486594114349px"/><g id="Feather"><path d="M513.34,1099.1" transform="translate(-84.44 -84.44)" style="fill:none;stroke:#ffc208;stroke-linecap:round;stroke-linejoin:round;stroke-width:17px"/><path d="M887,1723.4l-9.5-5.43-4.75-2.71c-1.58-.91-3.18-1.79-4.71-2.78l-9.28-5.81-4.64-2.91c-1.53-1-3-2-4.54-3.07l-9.05-6.18c-1.53-1-3-2.13-4.45-3.21l-4.4-3.27c-5.95-4.26-11.58-9-17.3-13.51a385,385,0,0,1-32.17-30c-2.5-2.69-5.06-5.34-7.45-8.16l-3.65-4.17-3.53-4.29-1.76-2.15-1.7-2.22c-1.13-1.48-2.3-2.92-3.38-4.46s-2.22-3-3.28-4.61c-.53-.79-1.07-1.55-1.6-2.38s-1-1.56-1.65-2.61a8.34,8.34,0,0,1-.45-7.72l.16-.36,2.62-5.74c.85-1.92,1.81-3.8,2.48-5.78l2.22-5.88.55-1.46c.17-.5.31-1,.46-1.5l.9-3a128.51,128.51,0,0,0,5-24.41l.52-6.2c.12-2.07.09-4.15.15-6.22,0-1,.06-2.07,0-3.11l-.16-3.11-.15-3.11-.07-1.55-.17-1.55-.7-6.19c-.32-2.06-.71-4.1-1.06-6.16s-.86-4.07-1.31-6.1l-.72-3c-.25-1-.58-2-.86-3l-.89-3-.43-1.5-.52-1.49-2.09-5.93-2.37-5.83c-.81-1.94-1.74-3.83-2.6-5.75a180.34,180.34,0,0,0-12.49-22,201.59,201.59,0,0,0-15.36-20.32c-2.79-3.2-5.63-6.37-8.61-9.38-1.48-1.51-3-3-4.51-4.43-.75-.74-1.52-1.43-2.29-2.13s-1.58-1.42-2.19-1.93l.63.48c-27-18.3-50.81-40.71-71.81-65.2s-39.3-51.13-55.55-78.78a794.69,794.69,0,0,1-43.23-85.7c-12.73-29.31-24-59.22-34-89.47l13.64,3.72a58.8,58.8,0,0,0-7.55,8.23,96.08,96.08,0,0,0-6.62,9.81,180.92,180.92,0,0,0-10.92,22c-3.21,7.63-6.09,15.47-8.68,23.42q-1.95,6-3.68,12c-.58,2-1.13,4-1.68,6s-1.06,4.08-1.51,6l0,.19a8.48,8.48,0,0,1-16.73-1.62l-.42-10.72-.21-5.35c-.08-1.79-.16-3.58-.14-5.37l0-10.73,0-5.36.16-5.37.34-10.73c.15-3.57.44-7.14.66-10.72.36-7.15,1.22-14.27,1.89-21.41,1.71-14.24,4-28.43,7-42.49.79-3.51,1.56-7,2.49-10.52l1.33-5.24,1.48-5.23c.48-1.74,1-3.47,1.56-5.21s1.05-3.47,1.66-5.2,1.15-3.46,1.81-5.21c.33-.87.62-1.73,1-2.61s.66-1.71,1.11-2.77a8.48,8.48,0,0,1,16,1.08l0,.09.24.89h0l.05.17a8.5,8.5,0,1,1-16.42,4.42l0-.16c-4.46-18-8.79-35.92-12.62-54s-7.46-36.18-10.77-54.35-6.23-36.39-8.9-54.66-5-36.53-6.8-55h0l9.59,1.63a597.46,597.46,0,0,0-49.15,343c.45,2.89.86,5.79,1.35,8.68l1.54,8.64c1,5.78,2.23,11.5,3.37,17.24.55,2.88,1.26,5.72,1.89,8.58l2,8.56,2.17,8.51c.73,2.83,1.4,5.68,2.22,8.49a642.72,642.72,0,0,0,51.38,130.49,688.24,688.24,0,0,0,77.47,116.94l2.77,3.41,2.84,3.35,5.67,6.7c3.82,4.45,7.74,8.8,11.6,13.19s7.91,8.64,11.95,12.88l6.09,6.32,3.05,3.17,3.11,3.1q24.8,24.89,51.85,47.36c72.07,59.89,155.38,105.93,243.93,136.3h0a8.5,8.5,0,0,1-5.51,16.08H885c-90.24-31.57-175-79.09-248.16-140.65q-27.42-23.07-52.61-48.65l-3.16-3.18L578,1526.6l-6.17-6.5c-4.1-4.34-8.07-8.81-12.11-13.21s-7.89-9-11.76-13.52l-5.74-6.88-2.88-3.43-2.8-3.5a703.29,703.29,0,0,1-78.32-119.78,657.79,657.79,0,0,1-51.6-133.45c-.82-2.87-1.49-5.79-2.22-8.68l-2.15-8.7-1.95-8.75c-.63-2.92-1.33-5.82-1.88-8.76-1.12-5.86-2.39-11.7-3.33-17.6l-1.52-8.83c-.48-3-.88-5.91-1.32-8.87A610,610,0,0,1,444.39,807a5.05,5.05,0,0,1,9.58,1.5v.13h0c2.31,18,5.25,36.19,8.43,54.2s6.67,36,10.52,53.93,7.89,35.76,12.36,53.51,9.19,35.42,14.15,53L483,1027.73h0l-.24-.9,16,1.17c-.24.56-.56,1.41-.85,2.13s-.57,1.56-.86,2.33c-.59,1.55-1.11,3.18-1.65,4.77s-1,3.23-1.55,4.85-1,3.24-1.47,4.89l-1.39,4.94-1.27,5c-.89,3.31-1.61,6.67-2.37,10-2.95,13.42-5.12,27.06-6.76,40.76-.64,6.87-1.48,13.73-1.82,20.63-.21,3.45-.5,6.89-.64,10.35l-.32,10.36-.16,5.19,0,5.18,0,10.38c0,1.73.06,3.46.13,5.19l.21,5.19.41,10.37-16.77-1.43c.54-2.29,1.08-4.35,1.65-6.5s1.15-4.24,1.76-6.35q1.81-6.33,3.86-12.58c2.72-8.34,5.74-16.61,9.18-24.77a198.8,198.8,0,0,1,12-24.05,112.31,112.31,0,0,1,7.76-11.48,74.19,74.19,0,0,1,9.84-10.65,8.47,8.47,0,0,1,12,.78,8.25,8.25,0,0,1,1.66,2.87l0,.07c9.93,29.84,21,59.29,33.51,88.07a778.62,778.62,0,0,0,42.28,83.86c15.84,26.94,33.58,52.74,53.8,76.32s43,44.91,68.43,62.18l.07.05a6.07,6.07,0,0,1,.57.43c1.09.91,1.9,1.63,2.8,2.45s1.75,1.58,2.58,2.39q2.53,2.4,5,4.88c3.25,3.29,6.33,6.71,9.35,10.19a220.65,220.65,0,0,1,16.67,22,199.4,199.4,0,0,1,13.66,24.15c1,2.12,2,4.2,2.87,6.35l2.63,6.47,2.33,6.6.57,1.65.5,1.69,1,3.36c.32,1.12.68,2.24,1,3.37l.8,3.42c.52,2.29,1.14,4.55,1.49,6.87s.83,4.62,1.18,6.94l.8,7,.18,1.75.09,1.76.18,3.53.17,3.52c0,1.18,0,2.36,0,3.53-.06,2.36,0,4.71-.17,7.06l-.59,7a145.46,145.46,0,0,1-5.63,27.55l-1,3.37c-.17.56-.33,1.12-.52,1.67l-.61,1.64-2.47,6.56c-.77,2.21-1.81,4.29-2.76,6.42l-2.9,6.35-.28-8.08c.29.49.81,1.27,1.22,1.92s.94,1.39,1.41,2.08c.91,1.39,2,2.77,3,4.15s2.08,2.74,3.11,4.11l1.58,2.05,1.65,2,3.3,4,3.43,3.93c2.25,2.65,4.68,5.16,7,7.71a364.7,364.7,0,0,0,30.67,28.64c5.49,4.38,10.87,8.88,16.59,13l4.23,3.14c1.42,1,2.81,2.11,4.28,3.08l8.71,6c1.45,1,2.89,2,4.36,3l4.48,2.8,8.94,5.61c1.48,1,3,1.8,4.55,2.68l4.59,2.62,9.17,5.25.3.17A8.5,8.5,0,1,1,887,1723.4Z" transform="translate(-84.44 -84.44)" style="fill:#ffc208"/></g><g id="Tree"><path d="M1400.66,970.41" transform="translate(-84.44 -84.44)" style="fill:none;stroke:#ffe572;stroke-linecap:round;stroke-linejoin:round;stroke-width:16px"/><path d="M1148.91,1175.62c38.76-50.83,95.65-109.13,176.41-158.52h0s165-144.88-137.59-256.34l-1.51-1.32c65.3,16,256.08,75,214.8,211.57" transform="translate(-84.44 -84.44)" style="fill:none;stroke:#ffe572;stroke-linecap:round;stroke-linejoin:round;stroke-width:14px"/></g><g id="Tree-2" data-name="Tree"><path d="M754.75,970.41" transform="translate(-84.44 -84.44)" style="fill:none;stroke:#ffe572;stroke-linecap:round;stroke-linejoin:round;stroke-width:16px"/><path d="M1006.5,1175.62c-38.76-50.83-95.64-109.13-176.41-158.52h0s-165-144.88,137.59-256.34l1.51-1.32c-65.29,16-256.08,75-214.8,211.57" transform="translate(-84.44 -84.44)" style="fill:none;stroke:#ffe572;stroke-linecap:round;stroke-linejoin:round;stroke-width:14px"/></g><g id="Olive"><path d="M728.47,882.86S642.35,828.2,723.81,683C723.81,683,749.66,832.11,728.47,882.86Z" transform="translate(-84.44 -84.44)" style="fill:none;stroke:#ffe572;stroke-linecap:round;stroke-linejoin:round;stroke-width:12.2514823079109px"/><path d="M728,532.31S757,424,930.65,395.05C930.64,410.91,794.26,543.8,728,532.31Z" transform="translate(-84.44 -84.44)" style="fill:none;stroke:#ffe572;stroke-linecap:round;stroke-linejoin:round;stroke-width:15px"/></g><g id="SpearHEad"><path d="M1188.47,942.3c57.68-68.71,108.87-157,108.87-157L1079.59,311.58l.41.42L862.25,785.75s49.8,89.46,108.87,157C971.12,942.72,1069.44,1084.1,1188.47,942.3Z" transform="translate(-84.44 -84.44)" style="fill:#fff"/><path d="M1181,936c10.17-12,20.12-24.21,29.7-36.77s19-25.28,28-38.26,18-26.06,26.72-39.31,17.28-26.65,25.43-40.08h0l-.33,6.9L1073,314.6h0a7.23,7.23,0,0,1,11.78-8h0l.56.27a3.14,3.14,0,0,1,1.79,3.07l-.38,5.2h0L869.06,788.88l-.26-6.78h0c4,6.72,8.13,13.51,12.31,20.22s8.43,13.4,12.73,20c8.61,13.3,17.54,26.37,26.59,39.34s18.48,25.64,28.11,38.12,19.77,24.51,30.09,36.3c.13.15.25.3.37.46l.31.42,1,1.34,1.15,1.46c.78,1,1.57,2,2.39,2.93,1.63,2,3.32,3.87,5,5.75,3.45,3.78,7.09,7.4,10.85,10.86A161.59,161.59,0,0,0,1024,977.8a118.76,118.76,0,0,0,27,12.46,92.05,92.05,0,0,0,28.65,4.25,93.9,93.9,0,0,0,28.5-4.86c2.33-.72,4.61-1.64,6.91-2.5s4.55-1.89,6.77-3a128.31,128.31,0,0,0,13.12-7.22,176.66,176.66,0,0,0,24.34-18.52A252.73,252.73,0,0,0,1181,936Zm15,12.62c-14.16,17.23-30.28,33.4-49.58,46.23a144.54,144.54,0,0,1-15.12,8.73c-2.59,1.36-5.31,2.5-8,3.71s-5.47,2.22-8.31,3.1a110.87,110.87,0,0,1-35.25,5.93,113.24,113.24,0,0,1-35.25-5.65,139.89,139.89,0,0,1-31.65-15,177.54,177.54,0,0,1-27.06-21.26q-6.21-5.9-11.89-12.29-2.85-3.19-5.56-6.54c-.9-1.11-1.79-2.25-2.68-3.4l-1.32-1.76-.67-.91-.73-1,.69.88L955.82,940c-1.29-1.57-2.61-3.1-3.86-4.69l-3.76-4.76c-2.48-3.18-5-6.32-7.46-9.54l-7.28-9.66c-9.56-13-18.9-26.1-27.78-39.49s-17.52-26.93-25.87-40.64-16.39-27.53-24.11-41.78h0a7.4,7.4,0,0,1-.29-6.72l0-.06,217.79-473.73h0l1.41,8.27-.25-.56h0l11.77-8,218,473.64h0a7.54,7.54,0,0,1-.33,6.88h0c-8,14-16.23,27.7-24.68,41.34s-17.18,27.05-26.09,40.39-18.14,26.48-27.58,39.49S1206.15,936.05,1196,948.61Z" transform="translate(-84.44 -84.44)" style="fill:#ffc208"/></g><circle cx="578.06" cy="1398.06" r="50.5" style="fill:none;stroke:#ffe572;stroke-linecap:round;stroke-linejoin:round;stroke-width:10.448275862069px"/><g id="Feather-2" data-name="Feather"><path d="M1644.5,1098.86" transform="translate(-84.44 -84.44)" style="fill:none;stroke:#ffc208;stroke-linecap:round;stroke-linejoin:round;stroke-width:17px"/><path d="M1262.71,1708.23l9.18-5.25,4.58-2.62c1.53-.88,3.08-1.72,4.55-2.68l9-5.6,4.47-2.8c1.48-1,2.91-2,4.37-3l8.71-6c1.47-1,2.86-2,4.27-3.08l4.23-3.14c5.72-4.09,11.11-8.59,16.6-13a367.9,367.9,0,0,0,30.66-28.64c2.38-2.56,4.8-5.07,7-7.72l3.44-3.92,3.3-4,1.64-2,1.58-2.05c1-1.37,2.14-2.71,3.11-4.11s2-2.76,3-4.15c.46-.69,1-1.4,1.4-2.08s.93-1.43,1.22-1.92l-.28,8.08-2.9-6.35c-1-2.13-2-4.21-2.75-6.42l-2.47-6.55-.62-1.64c-.18-.56-.34-1.12-.52-1.68l-1-3.36a145.7,145.7,0,0,1-5.62-27.56l-.59-7c-.13-2.34-.11-4.7-.17-7,0-1.18-.06-2.36,0-3.53l.17-3.53.17-3.52.09-1.77.19-1.75.79-7c.36-2.32.79-4.63,1.19-6.94s1-4.59,1.48-6.88l.81-3.42c.28-1.13.64-2.24,1-3.37l1-3.36.49-1.68.57-1.66,2.33-6.6,2.63-6.47c.9-2.15,1.92-4.23,2.87-6.35a198.13,198.13,0,0,1,13.67-24.15,222.09,222.09,0,0,1,16.66-22c3-3.48,6.1-6.9,9.36-10.19q2.41-2.47,5-4.88c.83-.81,1.71-1.6,2.57-2.39s1.72-1.54,2.8-2.45c.18-.15.37-.29.57-.43l.07-.05c25.48-17.27,48.23-38.62,68.43-62.18s38-49.38,53.8-76.32a776.85,776.85,0,0,0,42.29-83.86c12.5-28.78,23.57-58.23,33.51-88.07v0a8.48,8.48,0,0,1,10.72-5.36,8.6,8.6,0,0,1,2.92,1.67,75.36,75.36,0,0,1,9.84,10.65,115.11,115.11,0,0,1,7.76,11.48,197.26,197.26,0,0,1,12,24.05c3.44,8.16,6.47,16.43,9.19,24.77q2,6.27,3.85,12.58c.61,2.11,1.19,4.23,1.77,6.35s1.1,4.21,1.64,6.51l-16.76,1.42.41-10.37.2-5.19c.08-1.73.16-3.46.14-5.19l0-10.37,0-5.19-.15-5.18-.33-10.37c-.14-3.45-.43-6.9-.63-10.35-.35-6.9-1.19-13.76-1.82-20.63-1.65-13.7-3.81-27.33-6.77-40.76-.75-3.35-1.48-6.71-2.36-10l-1.27-5-1.4-4.93c-.45-1.65-1-3.28-1.46-4.9s-1-3.26-1.55-4.85-1.07-3.22-1.66-4.76c-.28-.78-.56-1.59-.86-2.33s-.61-1.58-.85-2.14l16-1.16-.24.89h0l-16.41-4.42c4.89-17.62,9.67-35.27,14-53.06s8.38-35.63,12.16-53.54,7.18-35.91,10.33-54,6-36.18,8.23-54.19h0v-.09a5.82,5.82,0,0,1,11.05-1.79,609.44,609.44,0,0,1,52,349.53c-.44,3-.84,5.92-1.33,8.87l-1.52,8.84c-1,5.9-2.22,11.75-3.35,17.62-.55,2.94-1.25,5.84-1.89,8.76l-2,8.76-2.16,8.7c-.74,2.9-1.4,5.81-2.22,8.69a658.38,658.38,0,0,1-51.74,133.5,703.57,703.57,0,0,1-78.43,119.79l-2.81,3.49-2.88,3.44-5.75,6.87c-3.87,4.55-7.84,9-11.77,13.52s-8,8.86-12.12,13.21l-6.18,6.49-3.09,3.25-3.16,3.18q-25.17,25.53-52.66,48.62c-73.23,61.52-158,109-248.28,140.5a8.5,8.5,0,0,1-5.61-16l0,0h0c88.52-30.43,171.79-76.52,243.8-136.45q27-22.46,51.8-47.38l3.11-3.1,3-3.17,6.09-6.32c4-4.24,8-8.6,11.93-12.88s7.78-8.75,11.59-13.19l5.67-6.71,2.83-3.35,2.77-3.41a688.38,688.38,0,0,0,77.35-116.94,644,644,0,0,0,51.26-130.43c.82-2.81,1.48-5.66,2.21-8.49l2.16-8.51,2-8.55c.63-2.86,1.34-5.7,1.89-8.57,1.13-5.74,2.4-11.45,3.35-17.23l1.54-8.64c.48-2.88.89-5.78,1.34-8.67a598.17,598.17,0,0,0-49.33-342.61l11.06-1.88h0c-1.85,18.54-4.29,36.76-7,55.06s-5.71,36.48-9.09,54.64-6.95,36.28-11,54.32-8.3,36-12.81,54a8.5,8.5,0,1,1-16.49-4.15l0-.09.05-.19h0l.25-.89v0a8.48,8.48,0,0,1,16-1.12c.46,1.06.75,1.86,1.11,2.77s.65,1.74,1,2.62c.66,1.74,1.22,3.47,1.81,5.2s1.11,3.47,1.67,5.2,1.07,3.47,1.55,5.22l1.48,5.22,1.34,5.24c.93,3.49,1.69,7,2.48,10.52,3.1,14.07,5.35,28.26,7.06,42.5.66,7.13,1.53,14.25,1.89,21.41.21,3.57.51,7.14.65,10.72l.34,10.73.16,5.36,0,5.37,0,10.73c0,1.79-.06,3.57-.13,5.36l-.21,5.36-.43,10.71a8.48,8.48,0,0,1-16.72,1.63l0-.2c-.44-1.88-1-4-1.51-6s-1.09-4-1.68-6q-1.72-6-3.68-12c-2.59-8-5.46-15.79-8.68-23.42a179.48,179.48,0,0,0-10.92-22,95.56,95.56,0,0,0-6.62-9.81,58.75,58.75,0,0,0-7.55-8.23l13.65-3.72c-10.08,30.26-21.31,60.16-34,89.48a796.47,796.47,0,0,1-43.22,85.7c-16.26,27.64-34.54,54.25-55.56,78.77s-44.82,46.9-71.81,65.2l.64-.48c-.62.52-1.46,1.26-2.2,1.93s-1.53,1.39-2.29,2.13c-1.52,1.44-3,2.92-4.51,4.43-3,3-5.82,6.18-8.61,9.38a204.25,204.25,0,0,0-15.36,20.32,180.27,180.27,0,0,0-12.48,22c-.87,1.92-1.8,3.81-2.61,5.75l-2.37,5.84-2.09,5.92-.51,1.49-.44,1.5-.88,3c-.29,1-.61,2-.87,3l-.71,3c-.46,2-1,4-1.32,6.11s-.74,4.09-1.06,6.15l-.69,6.19-.18,1.55-.07,1.55-.15,3.11-.16,3.11c0,1,0,2.08,0,3.11,0,2.08,0,4.15.14,6.22l.53,6.2a127.59,127.59,0,0,0,5,24.41l.89,3c.16.5.3,1,.46,1.5l.56,1.47,2.21,5.87c.68,2,1.63,3.86,2.49,5.78l2.61,5.74.14.32a8.45,8.45,0,0,1-.42,7.76c-.63,1-1.11,1.76-1.65,2.62s-1.07,1.58-1.61,2.38c-1.06,1.59-2.18,3.07-3.28,4.6s-2.25,3-3.38,4.47l-1.7,2.21-1.76,2.15-3.53,4.29-3.64,4.17c-2.4,2.82-4.95,5.47-7.46,8.16a381.85,381.85,0,0,1-32.17,30c-5.72,4.56-11.35,9.25-17.29,13.51l-4.41,3.27c-1.47,1.09-2.92,2.2-4.45,3.21l-9,6.18c-1.51,1-3,2.08-4.53,3.07l-4.64,2.91-9.29,5.81c-1.53,1-3.13,1.87-4.71,2.78l-4.75,2.72-9.5,5.42a8.49,8.49,0,1,1-8.43-14.75Z" transform="translate(-84.44 -84.44)" style="fill:#ffc208"/></g><g id="Olive-2" data-name="Olive"><path d="M1429.38,882.61S1515.49,828,1434,682.74C1434,682.74,1408.18,831.87,1429.38,882.61Z" transform="translate(-84.44 -84.44)" style="fill:none;stroke:#ffe572;stroke-linecap:round;stroke-linejoin:round;stroke-width:12.2514823079109px"/><path d="M1429.87,532.06s-29-108.31-202.67-137.26C1227.2,410.67,1363.59,543.55,1429.87,532.06Z" transform="translate(-84.44 -84.44)" style="fill:none;stroke:#ffe572;stroke-linecap:round;stroke-linejoin:round;stroke-width:15px"/></g><circle cx="1410.91" cy="1397.81" r="50.5" style="fill:none;stroke:#ffe572;stroke-linecap:round;stroke-linejoin:round;stroke-width:10.448275862069px"/><circle cx="1452.41" cy="517.31" r="93.5" style="fill:none;stroke:#ffe572;stroke-linecap:round;stroke-linejoin:round;stroke-width:10px"/><path d="M1017,756.3" transform="translate(-84.44 -84.44)" style="fill:none;stroke:#ffdb55;stroke-linecap:round;stroke-linejoin:round;stroke-width:12px"/><circle cx="536.56" cy="517.56" r="93.5" style="fill:none;stroke:#ffe572;stroke-linecap:round;stroke-linejoin:round;stroke-width:10px"/><path d="M679.53,640.69" transform="translate(-84.44 -84.44)" style="fill:none;stroke:#ffdb55;stroke-linecap:round;stroke-linejoin:round;stroke-width:12px"/><path d="M1022,758" transform="translate(-84.44 -84.44)" style="fill:none;stroke:#ffdb55;stroke-linecap:round;stroke-linejoin:round;stroke-width:12px"/><path d="M1034,725" transform="translate(-84.44 -84.44)" style="fill:none;stroke:#ffdb55;stroke-linecap:round;stroke-linejoin:round;stroke-width:12px"/><path d="M754.07,969.93" transform="translate(-84.44 -84.44)" style="fill:none;stroke:#ffdb55;stroke-linecap:round;stroke-linejoin:round;stroke-width:17px"/><path d="M749.13,976.85a531.11,531.11,0,0,1-59.71-51.66,459.85,459.85,0,0,1-50.62-60.42,406.53,406.53,0,0,1-38.62-68.51,340.84,340.84,0,0,1-13.73-36.83c-1.93-6.26-3.68-12.58-5.16-19A179.05,179.05,0,0,1,577.73,721h0l4.55-.06a260.14,260.14,0,0,0,2.17,59.35,283.68,283.68,0,0,0,15.09,57.38,341.93,341.93,0,0,0,25.77,53.5,429.92,429.92,0,0,0,33.77,48.92c24.7,31.08,53.09,59.16,83.53,84.67q22.86,19.11,47.24,36.29,12.17,8.58,24.68,16.63,6.26,4,12.59,7.87,3.17,1.92,6.35,3.78l3.19,1.84,1.58.89.77.42.36.2.16.08h0c-2.65,5.87,6-13.13-7.24,12.58a0,0,0,0,1,0,0h0l-.66-.54a35.42,35.42,0,0,0-10.79-5.72,73.87,73.87,0,0,0-13-3.09,118.91,118.91,0,0,0-13.88-1.24c-4.69-.18-9.44-.13-14.21.07a275.36,275.36,0,0,0-28.65,2.75c-4.77.69-9.54,1.48-14.28,2.37-2.37.44-4.74.9-7.09,1.4s-4.75,1-6.93,1.54h0l-1.45-16.76a156,156,0,0,1,39.11,7.76,176.19,176.19,0,0,1,35.82,16.75c22.52,13.66,42,31.64,58.26,52A269.49,269.49,0,0,1,893.21,1230c1.15,3,2.39,6,3.46,9.08l3.17,9.19,2.82,9.3c.94,3.09,1.68,6.25,2.53,9.37a331.62,331.62,0,0,1,7.24,38.09v0h0a8.42,8.42,0,0,1-7.21,9.48,9.36,9.36,0,0,1-1.18.08,169.2,169.2,0,0,1-36.57-4.27,196.71,196.71,0,0,1-34.67-11.45,244.47,244.47,0,0,1-32-16.86,320.86,320.86,0,0,1-29.27-20.79c-2.31-1.88-4.7-3.69-6.94-5.64l-6.81-5.79-6.63-6c-2.22-2-4.33-4.06-6.5-6.09-8.58-8.21-16.89-16.67-24.83-25.44s-15.63-17.75-23.06-26.92-14.57-18.55-21.55-28c-27.79-38.06-52.25-78.31-74.55-119.59q-16.7-31-31.73-62.81-7.53-15.9-14.62-32c-4.73-10.75-9.32-21.49-13.66-32.48v0l7-1.66,2.07,18.08,1,9c.36,3,.9,6,1.34,9l2.78,18c.21,1.5.5,3,.79,4.48l.87,4.46,1.74,8.92,1.74,8.93c.26,1.49.62,3,1,4.44l1,4.42,4.16,17.7c1.55,5.86,3.19,11.69,4.79,17.53.81,2.92,1.57,5.85,2.44,8.75l2.73,8.67,2.73,8.66c.92,2.89,1.78,5.8,2.84,8.63l6.09,17.12c1,2.87,2.15,5.66,3.25,8.48l3.35,8.45c1.12,2.81,2.21,5.63,3.36,8.43l3.64,8.33,3.63,8.32,1.83,4.15,1.95,4.1,7.85,16.38,8.35,16.12c1.35,2.71,2.89,5.32,4.35,8l4.42,7.93a674.17,674.17,0,0,0,84.67,117.55,571.86,571.86,0,0,0,51.67,50.67c4.55,3.92,9.22,7.71,13.93,11.35l1.76,1.34,1.69,1.25c1.31.9,2.58,1.84,3.84,2.76q3.75,2.79,7.4,5.66c9.74,7.65,19.07,15.72,28.13,24.09a533.52,533.52,0,0,1,93.69,114A468.34,468.34,0,0,1,954,1579.09,432,432,0,0,1,976.09,1650a249.83,249.83,0,0,1,5.87,37.07c.21,3.15.48,6.29.53,9.47,0,1.58.11,3.16.13,4.75l0,4.76,0,2.39-.12,2.39-.24,4.77-.45,4.78c-.08.8-.14,1.59-.24,2.39l-.33,2.38a134.4,134.4,0,0,1-3.84,18.94,117.26,117.26,0,0,1-6.68,18.3,112.16,112.16,0,0,1-22.11,32.19,130.6,130.6,0,0,1-31.06,23.24A175.07,175.07,0,0,1,882,1832.19a234.88,234.88,0,0,1-37.15,7.4q-9.37,1.11-18.82,1.55c-3.15.14-6.31.23-9.48.25-1.58,0-3.17,0-4.77,0l-2.41-.06c-.83,0-1.57,0-2.54-.11h0a8.5,8.5,0,1,1,1-17h.08l.42,0-3.41,16.47A817.65,817.65,0,0,1,677,1781.15a794.07,794.07,0,0,1-115.68-80.77,829.82,829.82,0,0,1-100-99.58l-2.88-3.35L455.7,1594l-5.53-6.88c-3.68-4.6-7.39-9.17-11-13.79l-10.54-14.18c-3.48-4.75-7.11-9.39-10.36-14.3l-10-14.56c-1.64-2.44-3.37-4.83-4.94-7.32l-4.72-7.46-9.43-14.93c-1.62-2.46-3-5.06-4.52-7.59l-4.43-7.64-4.43-7.63-2.22-3.82-1.1-1.91-1-2-8.28-15.6-4.14-7.8-1-2-1-2-1.92-4-7.68-15.91c-2.65-5.26-4.92-10.7-7.28-16.09l-7.06-16.19c-.61-1.34-1.14-2.71-1.68-4.08l-1.6-4.11-3.22-8.23-3.22-8.22c-1.05-2.75-2.21-5.46-3.12-8.26a814.56,814.56,0,0,1-48.95-276.85q0-35.31,3-70.54c2-23.46,4.93-46.85,9-70a805.52,805.52,0,0,1,177-379.79Q483,533.36,508,508.32T560,460.62A804.26,804.26,0,0,1,939.72,283.43c23.18-4.13,46.57-7.06,70-9.09s47-3,70.54-3.07a826,826,0,0,1,140.57,12.25A802.44,802.44,0,0,1,1485,379.85q30.6,17.65,59.49,38.06t56,43.09q27,22.74,52,47.74t47.64,52.13A805.82,805.82,0,0,1,1840.52,804.4a805.66,805.66,0,0,1,36.23,136.38c4.09,23.2,7,46.58,9,70.05s3,47,2.94,70.54a814.52,814.52,0,0,1-49.13,276.82l-.73,2.08-.8,2.06-1.61,4.11-3.22,8.22-3.22,8.23-1.61,4.11-.8,2.06-.89,2-7.06,16.19-3.54,8.09-.88,2-1,2-1.92,4-7.68,15.9-1.92,4-1,2-1,2-4.14,7.8-8.29,15.6c-.67,1.31-1.41,2.58-2.15,3.85l-2.22,3.82-4.43,7.64-4.44,7.63c-1.49,2.54-2.91,5.12-4.52,7.58L1761.1,1516l-4.72,7.46c-1.59,2.48-3.31,4.87-5,7.31l-10,14.56-2.5,3.64c-.82,1.22-1.74,2.37-2.6,3.56l-5.27,7.09-10.54,14.17-11,13.78-5.53,6.88-2.77,3.44-2.89,3.34a829.82,829.82,0,0,1-100,99.51,793.33,793.33,0,0,1-115.74,80.69,818,818,0,0,1-128,59.49,8.47,8.47,0,0,1-3.34.5h-.1l-3.6-.23h1.09c-1,.06-1.71.09-2.55.12l-2.41.06q-2.4,0-4.77,0c-3.17,0-6.32-.1-9.47-.24q-9.45-.42-18.83-1.53a234.86,234.86,0,0,1-37.16-7.35,175.87,175.87,0,0,1-35.51-14.32,131.07,131.07,0,0,1-31.12-23.23,114.11,114.11,0,0,1-12.51-15.13,119.1,119.1,0,0,1-16.38-35.4,133.67,133.67,0,0,1-3.88-19l-.33-2.39c-.1-.79-.16-1.59-.24-2.39l-.45-4.78-.25-4.79-.12-2.39,0-2.38,0-4.78c0-1.58.08-3.17.13-4.75,0-3.18.3-6.33.52-9.48A248.93,248.93,0,0,1,1179,1650a433.9,433.9,0,0,1,22-71,469.84,469.84,0,0,1,33.48-66.23,533.91,533.91,0,0,1,93.65-114.25c9.07-8.38,18.41-16.47,28.15-24.15q3.66-2.88,7.41-5.67c1.26-.93,2.54-1.87,3.85-2.78l1.67-1.23,1.76-1.34c4.68-3.64,9.34-7.42,13.89-11.35a573,573,0,0,0,51.55-50.66,673.23,673.23,0,0,0,84.44-117.49l4.41-7.92c1.46-2.65,3-5.26,4.34-8l8.32-16.11,7.81-16.37,2-4.09,1.82-4.15,3.62-8.32,3.63-8.31c1.15-2.8,2.23-5.62,3.35-8.43l3.33-8.43c1.1-2.82,2.27-5.61,3.23-8.48l6.06-17.1c1.06-2.83,1.92-5.73,2.83-8.61l2.72-8.66,2.72-8.65c.86-2.9,1.61-5.83,2.43-8.75,1.58-5.83,3.22-11.66,4.76-17.51l4.13-17.67,1-4.42c.34-1.47.7-2.94,1-4.43l1.72-8.91,1.73-8.91.86-4.46c.29-1.48.58-3,.79-4.47l2.75-18c.44-3,1-6,1.33-9l1-9,2-18,9.32,2.22v0c-4.38,11-9,21.75-13.75,32.5s-9.65,21.4-14.7,32q-15.12,31.8-31.89,62.79c-22.41,41.27-47,81.48-74.87,119.51q-10.49,14.23-21.62,28t-23.14,26.89c-8,8.76-16.29,17.21-24.9,25.41-2.17,2-4.29,4.11-6.52,6.08l-6.65,6-6.82,5.78c-2.25,1.95-4.64,3.75-7,5.63a322.81,322.81,0,0,1-29.34,20.74,243.7,243.7,0,0,1-32.07,16.81,196.36,196.36,0,0,1-34.71,11.38,168.77,168.77,0,0,1-36.59,4.2h0a8.41,8.41,0,0,1-8.44-8.39,9.23,9.23,0,0,1,.08-1.18v0a331.62,331.62,0,0,1,7.24-38.09c.85-3.12,1.59-6.28,2.53-9.37l2.82-9.3,3.17-9.19c1.07-3,2.31-6,3.46-9.08a269.49,269.49,0,0,1,38.76-67.34c16.21-20.38,35.75-38.36,58.26-52a176.19,176.19,0,0,1,35.82-16.75,156,156,0,0,1,39.11-7.76l-1.45,16.76h0c-2.18-.52-4.6-1-6.93-1.52s-4.72-1-7.09-1.39q-7.12-1.31-14.29-2.33a277.88,277.88,0,0,0-28.65-2.67c-4.76-.19-9.5-.23-14.19,0a121,121,0,0,0-13.86,1.27,74.8,74.8,0,0,0-13,3.12,35.14,35.14,0,0,0-10.69,5.7l-.68.56a0,0,0,0,1-.06,0h0c-13.79-26.78-4.79-7-7.55-13.1,0,0,0,0,0,0l.15-.08.36-.19.77-.43,1.58-.89,3.17-1.84q3.18-1.87,6.34-3.8,6.32-3.85,12.56-7.89,12.48-8.07,24.63-16.69,24.27-17.21,47.1-36.39c30.35-25.56,58.64-53.68,83.2-84.76a429.49,429.49,0,0,0,33.58-48.9,342.09,342.09,0,0,0,25.55-53.37,283.12,283.12,0,0,0,14.87-57.16,259,259,0,0,0,2-59l7.59.09h0c-.21,1.79-.44,3.39-.72,5.05s-.58,3.27-.87,4.9c-.64,3.25-1.34,6.47-2.1,9.68-1.52,6.42-3.31,12.76-5.28,19a343.75,343.75,0,0,1-14,36.89,407.84,407.84,0,0,1-39,68.48,458.6,458.6,0,0,1-51,60.24,530,530,0,0,1-60,51.39,8.5,8.5,0,1,1-10.09-13.69l.18-.13,0,0a514.82,514.82,0,0,0,59.64-48.07,446.46,446.46,0,0,0,51.22-57,396.08,396.08,0,0,0,40-65.42,332.67,332.67,0,0,0,14.65-35.46c2.1-6,4-12.15,5.68-18.31q1.25-4.62,2.3-9.27c.33-1.55.69-3.11,1-4.65s.58-3.14.79-4.57h0a3.82,3.82,0,0,1,7.59.08v0a267.85,267.85,0,0,1-1.12,60.89,292.32,292.32,0,0,1-14.43,59.21,351,351,0,0,1-25.43,55.34,439.76,439.76,0,0,1-33.63,50.67c-24.65,32.21-53.06,61.34-83.58,87.87q-22.9,19.89-47.42,37.83-12.24,9-24.87,17.42-6.32,4.23-12.75,8.3c-2.15,1.35-4.31,2.7-6.5,4l-3.29,2-1.68,1-.86.5-.46.26-.27.14-.19.11c-2.8-6.1,6,13.79-7.68-13l-.75.55a50.4,50.4,0,0,1,15.14-8.53,90,90,0,0,1,15.73-4.08,134.57,134.57,0,0,1,15.61-1.68c5.17-.3,10.31-.34,15.42-.22a297.13,297.13,0,0,1,30.37,2.35q7.52,1,15,2.21,3.74.63,7.47,1.33c2.51.48,4.93,1,7.56,1.55h0a8.5,8.5,0,0,1-1.37,16.75h-.08a139.22,139.22,0,0,0-34.73,6.91,158.94,158.94,0,0,0-32.42,15.18c-20.55,12.46-38.66,29.06-53.75,48a252.09,252.09,0,0,0-36.28,63.07c-1.08,2.85-2.25,5.67-3.27,8.55l-3,8.65-2.66,8.77c-.89,2.92-1.58,5.9-2.38,8.85a311.77,311.77,0,0,0-6.85,36v0l-8.39-9.56c22.12.24,44.22-4.75,65-13.39a230.1,230.1,0,0,0,30.19-15.33,306.2,306.2,0,0,0,28.15-19.37c2.25-1.77,4.55-3.46,6.74-5.31l6.63-5.47,6.49-5.66c2.17-1.87,4.25-3.86,6.38-5.79,8.42-7.82,16.62-15.92,24.49-24.36s15.52-17.09,22.94-26,14.58-18,21.58-27.22c27.92-37,52.75-76.49,75.49-117.09q17-30.48,32.43-61.85,7.71-15.68,15-31.55c4.84-10.57,9.59-21.25,14-31.91v0l0-.07a4.83,4.83,0,0,1,9.29,2.29l-2,18.31-1,9.15c-.34,3.05-.86,6.07-1.28,9.11l-2.68,18.22c-.2,1.52-.49,3-.78,4.54l-.84,4.52-1.69,9.05-1.7,9.06c-.26,1.51-.61,3-1,4.5l-1,4.49-4.09,18c-1.52,6-3.15,11.87-4.72,17.81-.81,3-1.56,5.94-2.41,8.89l-2.71,8.81-2.71,8.81c-.91,2.93-1.76,5.88-2.81,8.77l-6.05,17.41c-1,2.91-2.14,5.76-3.23,8.62l-3.34,8.6c-1.12,2.86-2.2,5.73-3.35,8.58l-3.63,8.48-3.62,8.47-1.83,4.23-1.95,4.18c-2.62,5.56-5.19,11.14-7.85,16.68l-8.36,16.43c-1.35,2.76-2.89,5.42-4.35,8.13l-4.44,8.08a685.47,685.47,0,0,1-85.22,120.14,584.63,584.63,0,0,1-52.4,52.13c-4.65,4.07-9.43,8-14.35,11.87l-1.87,1.44-1,.72-1,.77c-1.19.84-2.36,1.71-3.55,2.6-2.37,1.79-4.74,3.62-7.07,5.49-9.37,7.46-18.42,15.41-27.2,23.63a520.6,520.6,0,0,0-90.55,111.84,455.35,455.35,0,0,0-32,64.39,418.93,418.93,0,0,0-20.81,68.67,234.86,234.86,0,0,0-5.31,35.1c-.17,2.93-.4,5.86-.42,8.78,0,1.46-.09,2.92-.09,4.38l.07,4.37,0,2.18.12,2.18.26,4.34.43,4.32c.08.72.14,1.44.23,2.15l.32,2.14a118.78,118.78,0,0,0,3.54,16.82,103.22,103.22,0,0,0,14.36,30.59,98.61,98.61,0,0,0,10.85,13,114.8,114.8,0,0,0,27.41,20.16,159,159,0,0,0,32.28,12.76,217.26,217.26,0,0,0,34.55,6.61q8.79,1,17.63,1.32c2.94.11,5.88.17,8.8.17q2.21,0,4.38-.06l2.15-.06,2-.1h.15a7.37,7.37,0,0,1,.94,0l3.6.21h0l-3.4.49A801.39,801.39,0,0,0,1474,1766.71a778.19,778.19,0,0,0,113.31-79,812,812,0,0,0,97.94-97.43l2.83-3.27,2.71-3.37,5.41-6.74,10.82-13.49,10.31-13.88,5.16-6.93c.85-1.17,1.74-2.3,2.55-3.49l2.45-3.56,9.78-14.26c1.62-2.39,3.3-4.73,4.86-7.15l4.62-7.31,9.24-14.61c1.58-2.41,3-4.94,4.43-7.42l4.34-7.48,4.34-7.47,2.17-3.74c.73-1.24,1.46-2.49,2.11-3.77l8.11-15.27,4-7.64,1-1.91.94-1.94,1.88-3.89,7.52-15.57,1.88-3.89.94-2,.87-2,3.45-7.92,6.92-15.85.87-2,.78-2,1.58-4,3.15-8,3.15-8,1.58-4,.79-2,.71-2a797.55,797.55,0,0,0,48.09-271q0-34.59-2.88-69.09c-1.93-23-4.82-45.87-8.82-68.57a789.6,789.6,0,0,0-35.46-133.5,789,789,0,0,0-137.49-238.4q-22.21-26.5-46.64-51t-51-46.74q-26.46-22.26-54.77-42.19t-58.24-37.26a785.64,785.64,0,0,0-258.53-94.3,809.76,809.76,0,0,0-137.64-12q-34.58.08-69.08,3c-23,2-45.86,4.85-68.56,8.89A788.55,788.55,0,0,0,571,473.64q-26.49,22.23-51,46.7t-46.67,51A787.43,787.43,0,0,0,300.09,943.13c-4,22.7-6.9,45.6-8.86,68.56s-2.93,46-2.94,69.09a797.72,797.72,0,0,0,47.91,271c.9,2.74,2,5.39,3.06,8.09l3.15,8,3.15,8,1.58,4c.51,1.35,1,2.69,1.63,4l6.92,15.85c2.31,5.27,4.53,10.6,7.12,15.75l7.52,15.57,1.88,3.89.93,2,1,1.91,4.05,7.63,8.11,15.28,1,1.9,1.08,1.87,2.17,3.74,4.34,7.48,4.34,7.48c1.47,2.48,2.83,5,4.42,7.43l9.24,14.61,4.61,7.31c1.54,2.44,3.24,4.77,4.85,7.16l9.78,14.26c3.17,4.81,6.73,9.35,10.14,14L452.6,1563c3.57,4.52,7.2,9,10.8,13.5l5.41,6.74,2.71,3.37,2.82,3.27a812.71,812.71,0,0,0,97.87,97.5,776.93,776.93,0,0,0,113.26,79.08,801.52,801.52,0,0,0,125.21,58.33h0a8.5,8.5,0,0,1-3.43,16.47l-.41,0,1.09-17h0l2,.1,2.16.07c1.44,0,2.9.06,4.37.06,2.92,0,5.87-.06,8.81-.16q8.82-.33,17.62-1.31a218.55,218.55,0,0,0,34.57-6.57,158.84,158.84,0,0,0,32.3-12.74,114.81,114.81,0,0,0,27.46-20.16,98.92,98.92,0,0,0,10.88-13,103.58,103.58,0,0,0,14.41-30.63,119.12,119.12,0,0,0,3.57-16.84l.31-2.14c.1-.72.15-1.44.23-2.16l.44-4.32.26-4.36.13-2.17,0-2.19.08-4.38c0-1.46-.06-2.92-.09-4.38,0-2.93-.25-5.86-.42-8.79a233.93,233.93,0,0,0-5.28-35.15,418.53,418.53,0,0,0-20.75-68.74,456.19,456.19,0,0,0-32-64.48,520.92,520.92,0,0,0-90.52-112c-8.78-8.24-17.84-16.21-27.21-23.7q-3.51-2.8-7.08-5.5c-1.19-.89-2.37-1.77-3.56-2.61l-1-.77-1-.72-1.86-1.44q-7.36-5.77-14.32-11.86c-9.32-8.1-18.28-16.56-27-25.26s-17.09-17.7-25.29-26.86a683.92,683.92,0,0,1-85-120.07l-4.42-8.08c-1.46-2.7-3-5.36-4.35-8.12l-8.33-16.42-7.81-16.67-1.95-4.17-1.81-4.22-3.62-8.47-3.61-8.46c-1.15-2.85-2.22-5.72-3.34-8.58l-3.32-8.58c-1.09-2.87-2.25-5.71-3.21-8.62l-6-17.39c-1-2.88-1.89-5.83-2.8-8.76l-2.69-8.8-2.7-8.79c-.85-3-1.59-5.92-2.39-8.88-1.57-5.93-3.19-11.85-4.71-17.79l-4.05-17.93-1-4.49c-.34-1.49-.7-3-.95-4.5l-1.68-9-1.69-9L548,968.7c-.28-1.51-.56-3-.76-4.53L544.57,946c-.42-3-.94-6.06-1.27-9.1l-1-9.14-1.94-18.28a3.62,3.62,0,0,1,7-1.72l0,.06v0c4.43,10.69,9.21,21.36,14.08,31.93s9.91,21.1,15.08,31.54q15.51,31.34,32.59,61.83c22.85,40.58,47.78,80,75.8,117q10.55,13.84,21.65,27.2t23,25.94c7.89,8.43,16.12,16.52,24.56,24.33,2.14,1.92,4.22,3.92,6.4,5.78l6.5,5.65,6.65,5.46c2.2,1.85,4.51,3.53,6.76,5.3a304.71,304.71,0,0,0,28.22,19.32A229.27,229.27,0,0,0,839,1284.39c20.77,8.6,42.89,13.54,65,13.25l-8.39,9.56v0a311.77,311.77,0,0,0-6.85-36c-.8-3-1.49-5.93-2.38-8.85l-2.66-8.77-3-8.65c-1-2.88-2.19-5.7-3.27-8.55a252.09,252.09,0,0,0-36.28-63.07c-15.09-19-33.2-35.59-53.75-48A158.94,158.94,0,0,0,755,1110a139.22,139.22,0,0,0-34.73-6.91h-.07a8.49,8.49,0,0,1-1.38-16.75h0c2.63-.58,5-1.06,7.56-1.53s5-.9,7.48-1.31q7.47-1.24,15-2.17a297.12,297.12,0,0,1,30.36-2.28c5.11-.1,10.25-.06,15.42.26a134.68,134.68,0,0,1,15.58,1.72,88.35,88.35,0,0,1,15.67,4.1,49.87,49.87,0,0,1,15,8.52l-.72-.53c-13.16,25.77-4.69,6.67-7.38,12.52l-.19-.1-.26-.15-.46-.26-.86-.5-1.67-1-3.29-2c-2.18-1.33-4.33-2.68-6.48-4q-6.42-4.08-12.72-8.33-12.61-8.46-24.82-17.47-24.42-18-47.29-37.93c-30.42-26.58-58.72-55.75-83.24-88a439.18,439.18,0,0,1-33.44-50.64,349.4,349.4,0,0,1-25.2-55.22,290.61,290.61,0,0,1-14.22-59,266.12,266.12,0,0,1-1-60.56v0a2.28,2.28,0,0,1,4.54,0h0a173.25,173.25,0,0,0,4.21,18.66c1.69,6.19,3.65,12.32,5.79,18.38A335.52,335.52,0,0,0,607.15,793a397.6,397.6,0,0,0,40.37,65.39,446.49,446.49,0,0,0,51.58,56.78A515.7,515.7,0,0,0,759,963h0a8.5,8.5,0,0,1-9.6,14A2.75,2.75,0,0,1,749.13,976.85Z" transform="translate(-84.44 -84.44)" style="fill:#ffe572"/><path d="M807.38,1832.71s181.62,62,200.12-131.37V1047.5c56.5-64.5,22-157,22-157l-343,572,.08-.07a31.91,31.91,0,1,1-18.25-10.4l0,.23,343-572L964,844c22.4-14.49,39.69-47.28,53-87.7L680,641l-.47-.31a70.48,70.48,0,1,1,11.71-38.91q0,3-.24,5.94l.66.06,335.21,114.78v-.11c28.53-110.58,33.63-251.83,33.63-251.83s-3.5,321.7,19,370l.24-.2c22.5-48.34,19-370,19-370s5.11,141.25,33.63,251.84v.1l335.21-114.78.67-.06q-.26-2.94-.25-5.94a70.46,70.46,0,1,1,11.71,38.91l-.47.31-337,115.3c13.33,40.43,30.62,73.21,53,87.7L1148,880.06l343,572,0-.23a32,32,0,1,1-18.25,10.4l.08.07-343-572s-34.5,92.5,22,157v654s-5.4,171.53,199.93,131.6" transform="translate(-84.44 -84.44)" style="fill:#fff;stroke:#ffe572;stroke-linecap:round;stroke-linejoin:round;stroke-width:12px"/><path d="M1111,1995" transform="translate(-84.44 -84.44)" style="fill:none;stroke:#ffc208;stroke-linecap:round;stroke-linejoin:round;stroke-width:10.3818860180588px"/><path d="M1103.57,1987.58q-.43-186,0-371.92.51-186.12,1.87-373.2l0,.64-27.83-255.16h7.67l-27.82,255.16,0-.64,5,752.54-10.5-10.5c8.6,0,17,.24,25.48.8S1094.61,1986.7,1103.57,1987.58Zm14.85,14.84c-10.7.88-21.72,1.73-32.9,2.28s-22.46.81-33.52.8h-.08a10.43,10.43,0,0,1-10.42-10.44V1995l5-752.54v-.08a3.43,3.43,0,0,1,0-.56l31.17-254.76a3.86,3.86,0,0,1,7.67,0l31.18,254.76a5.46,5.46,0,0,1,0,.56v.08q1.25,189.11,1.86,379.34T1118.42,2002.42Z" transform="translate(-84.44 -84.44)" style="fill:#ffc208"/></svg>